STARTFONT 2.1
COMMENT AUTOMATICALLY GENERATED FILE. DO NOT EDIT!
COMMENT Generated with 'ucs2any.pl luRS08.bdf ../../../fonts/util/map-ISO8859-1 ISO8859-1'
COMMENT from an ISO10646-1 encoded source BDF font.
COMMENT ucs2any.pl by Markus Kuhn <mkuhn@acm.org>, 2000.
COMMENT $Xorg: $
COMMENT ISO10646-1 extension by Markus Kuhn <mkuhn@acm.org>, 2001-03-20
COMMENT  (c) Copyright Bigelow & Holmes 1986, 1985. Lucida is a registered
COMMENT  trademark of Bigelow & Holmes. See LEGAL NOTICE file for terms 
COMMENT  of the license. 
FONT -B&H-Lucida-Medium-R-Normal-Sans-11-80-100-100-P-63-ISO8859-1
SIZE 8 100 100
FONTBOUNDINGBOX 17 12 -6 -2
STARTPROPERTIES 22
COMMENT Begin LogicalFontDescription
FONTNAME_REGISTRY ""
FOUNDRY "B&H"
FAMILY_NAME "Lucida"
WEIGHT_NAME "Medium"
SLANT "R"
SETWIDTH_NAME "Normal"
ADD_STYLE_NAME "Sans"
PIXEL_SIZE 11
POINT_SIZE 80
RESOLUTION_X 100
RESOLUTION_Y 100
SPACING "P"
AVERAGE_WIDTH 63
CHARSET_REGISTRY "ISO8859"
CHARSET_ENCODING "1"
COMMENT END LogicalFontDescription
FONT_ASCENT 10
FONT_DESCENT 3
DEFAULT_CHAR 0
COPYRIGHT "Copyright Bigelow & Holmes 1986, 1985."
FACE_NAME "Lucida Sans"
X_HEIGHT 6
CAP_HEIGHT 8
ENDPROPERTIES
CHARS 192
STARTCHAR defaultchar
ENCODING 0
SWIDTH 735 0
DWIDTH 8 0
BBX 5 7 1 0
BITMAP
A8
00
88
00
88
00
A8
ENDCHAR
STARTCHAR space
ENCODING 32
SWIDTH 316 0
DWIDTH 3 0
BBX 1 1 0 0
BITMAP
00
ENDCHAR
STARTCHAR exclam
ENCODING 33
SWIDTH 205 0
DWIDTH 3 0
BBX 1 8 1 0
BITMAP
80
80
80
80
80
80
00
80
ENDCHAR
STARTCHAR quotedbl
ENCODING 34
SWIDTH 373 0
DWIDTH 4 0
BBX 3 3 1 5
BITMAP
A0
A0
A0
ENDCHAR
STARTCHAR numbersign
ENCODING 35
SWIDTH 633 0
DWIDTH 7 0
BBX 7 8 0 0
BITMAP
14
34
7E
28
28
FC
58
50
ENDCHAR
STARTCHAR dollar
ENCODING 36
SWIDTH 633 0
DWIDTH 7 0
BBX 5 10 1 -1
BITMAP
20
78
A0
A0
60
30
28
28
F0
20
ENDCHAR
STARTCHAR percent
ENCODING 37
SWIDTH 669 0
DWIDTH 7 0
BBX 6 8 1 0
BITMAP
44
A8
B8
50
28
74
54
88
ENDCHAR
STARTCHAR ampersand
ENCODING 38
SWIDTH 697 0
DWIDTH 8 0
BBX 5 8 1 0
BITMAP
70
50
50
60
A8
B8
90
68
ENDCHAR
STARTCHAR quotesingle
ENCODING 39
SWIDTH 229 0
DWIDTH 3 0
BBX 1 3 1 5
BITMAP
80
80
80
ENDCHAR
STARTCHAR parenleft
ENCODING 40
SWIDTH 325 0
DWIDTH 4 0
BBX 2 10 1 -2
BITMAP
40
40
80
80
80
80
80
80
40
40
ENDCHAR
STARTCHAR parenright
ENCODING 41
SWIDTH 325 0
DWIDTH 4 0
BBX 2 10 1 -2
BITMAP
80
80
40
40
40
40
40
40
80
80
ENDCHAR
STARTCHAR asterisk
ENCODING 42
SWIDTH 482 0
DWIDTH 5 0
BBX 4 4 1 4
BITMAP
40
F0
60
60
ENDCHAR
STARTCHAR plus
ENCODING 43
SWIDTH 633 0
DWIDTH 7 0
BBX 7 7 0 0
BITMAP
10
10
10
FE
10
10
10
ENDCHAR
STARTCHAR comma
ENCODING 44
SWIDTH 316 0
DWIDTH 3 0
BBX 2 4 1 -2
BITMAP
C0
C0
40
80
ENDCHAR
STARTCHAR hyphen
ENCODING 45
SWIDTH 325 0
DWIDTH 4 0
BBX 2 1 1 3
BITMAP
C0
ENDCHAR
STARTCHAR period
ENCODING 46
SWIDTH 316 0
DWIDTH 3 0
BBX 1 1 1 0
BITMAP
80
ENDCHAR
STARTCHAR slash
ENCODING 47
SWIDTH 494 0
DWIDTH 5 0
BBX 5 10 0 -2
BITMAP
08
10
10
10
20
20
40
40
40
80
ENDCHAR
STARTCHAR zero
ENCODING 48
SWIDTH 633 0
DWIDTH 7 0
BBX 6 8 0 0
BITMAP
78
48
84
84
84
84
48
78
ENDCHAR
STARTCHAR one
ENCODING 49
SWIDTH 633 0
DWIDTH 7 0
BBX 2 8 2 0
BITMAP
C0
40
40
40
40
40
40
40
ENDCHAR
STARTCHAR two
ENCODING 50
SWIDTH 633 0
DWIDTH 7 0
BBX 5 8 1 0
BITMAP
70
88
08
18
30
60
C0
F8
ENDCHAR
STARTCHAR three
ENCODING 51
SWIDTH 633 0
DWIDTH 7 0
BBX 5 8 1 0
BITMAP
F0
08
08
70
08
08
08
F0
ENDCHAR
STARTCHAR four
ENCODING 52
SWIDTH 633 0
DWIDTH 7 0
BBX 6 8 0 0
BITMAP
18
18
28
48
C8
FC
08
08
ENDCHAR
STARTCHAR five
ENCODING 53
SWIDTH 633 0
DWIDTH 7 0
BBX 4 8 1 0
BITMAP
F0
80
80
E0
10
10
10
E0
ENDCHAR
STARTCHAR six
ENCODING 54
SWIDTH 633 0
DWIDTH 7 0
BBX 5 8 1 0
BITMAP
78
40
80
F0
88
88
88
70
ENDCHAR
STARTCHAR seven
ENCODING 55
SWIDTH 633 0
DWIDTH 7 0
BBX 5 8 1 0
BITMAP
F8
08
10
30
20
40
C0
80
ENDCHAR
STARTCHAR eight
ENCODING 56
SWIDTH 633 0
DWIDTH 7 0
BBX 5 8 1 0
BITMAP
70
88
88
70
D8
88
88
70
ENDCHAR
STARTCHAR nine
ENCODING 57
SWIDTH 633 0
DWIDTH 7 0
BBX 5 8 1 0
BITMAP
70
98
88
88
78
08
10
F0
ENDCHAR
STARTCHAR colon
ENCODING 58
SWIDTH 316 0
DWIDTH 3 0
BBX 1 6 1 0
BITMAP
80
00
00
00
00
80
ENDCHAR
STARTCHAR semicolon
ENCODING 59
SWIDTH 316 0
DWIDTH 3 0
BBX 1 8 1 -2
BITMAP
80
00
00
00
00
80
80
80
ENDCHAR
STARTCHAR less
ENCODING 60
SWIDTH 633 0
DWIDTH 7 0
BBX 6 7 0 0
BITMAP
04
18
30
C0
30
18
04
ENDCHAR
STARTCHAR equal
ENCODING 61
SWIDTH 633 0
DWIDTH 7 0
BBX 6 3 0 2
BITMAP
FC
00
FC
ENDCHAR
STARTCHAR greater
ENCODING 62
SWIDTH 633 0
DWIDTH 7 0
BBX 6 7 0 0
BITMAP
80
60
30
0C
30
60
80
ENDCHAR
STARTCHAR question
ENCODING 63
SWIDTH 422 0
DWIDTH 5 0
BBX 4 8 0 0
BITMAP
E0
10
10
20
40
40
00
40
ENDCHAR
STARTCHAR at
ENCODING 64
SWIDTH 858 0
DWIDTH 9 0
BBX 8 8 2 0
BITMAP
1E
63
5D
A9
A9
B6
40
3C
ENDCHAR
STARTCHAR A
ENCODING 65
SWIDTH 690 0
DWIDTH 8 0
BBX 7 8 0 0
BITMAP
10
38
28
28
44
7C
44
82
ENDCHAR
STARTCHAR B
ENCODING 66
SWIDTH 575 0
DWIDTH 6 0
BBX 5 8 1 0
BITMAP
F0
88
88
F0
90
88
88
F0
ENDCHAR
STARTCHAR C
ENCODING 67
SWIDTH 692 0
DWIDTH 8 0
BBX 6 8 1 0
BITMAP
3C
44
80
80
80
80
44
3C
ENDCHAR
STARTCHAR D
ENCODING 68
SWIDTH 749 0
DWIDTH 8 0
BBX 7 8 1 0
BITMAP
F8
84
82
82
82
82
84
F8
ENDCHAR
STARTCHAR E
ENCODING 69
SWIDTH 542 0
DWIDTH 6 0
BBX 5 8 1 0
BITMAP
F8
80
80
F0
80
80
80
F8
ENDCHAR
STARTCHAR F
ENCODING 70
SWIDTH 536 0
DWIDTH 6 0
BBX 4 8 1 0
BITMAP
F0
80
80
80
F0
80
80
80
ENDCHAR
STARTCHAR G
ENCODING 71
SWIDTH 723 0
DWIDTH 8 0
BBX 6 8 1 0
BITMAP
3C
44
80
80
84
84
44
3C
ENDCHAR
STARTCHAR H
ENCODING 72
SWIDTH 735 0
DWIDTH 8 0
BBX 6 8 1 0
BITMAP
84
84
84
FC
84
84
84
84
ENDCHAR
STARTCHAR I
ENCODING 73
SWIDTH 288 0
DWIDTH 3 0
BBX 1 8 1 0
BITMAP
80
80
80
80
80
80
80
80
ENDCHAR
STARTCHAR J
ENCODING 74
SWIDTH 311 0
DWIDTH 3 0
BBX 3 10 0 -2
BITMAP
20
20
20
20
20
20
20
20
20
C0
ENDCHAR
STARTCHAR K
ENCODING 75
SWIDTH 653 0
DWIDTH 7 0
BBX 6 8 1 0
BITMAP
8C
90
A0
E0
E0
B0
98
8C
ENDCHAR
STARTCHAR L
ENCODING 76
SWIDTH 533 0
DWIDTH 6 0
BBX 5 8 1 0
BITMAP
80
80
80
80
80
80
80
F8
ENDCHAR
STARTCHAR M
ENCODING 77
SWIDTH 861 0
DWIDTH 9 0
BBX 7 8 1 0
BITMAP
C6
C6
C6
AA
AA
AA
92
82
ENDCHAR
STARTCHAR N
ENCODING 78
SWIDTH 741 0
DWIDTH 8 0
BBX 6 8 1 0
BITMAP
84
C4
E4
A4
94
9C
8C
84
ENDCHAR
STARTCHAR O
ENCODING 79
SWIDTH 777 0
DWIDTH 9 0
BBX 7 8 1 0
BITMAP
38
44
82
82
82
82
44
38
ENDCHAR
STARTCHAR P
ENCODING 80
SWIDTH 553 0
DWIDTH 6 0
BBX 5 8 1 0
BITMAP
F0
88
88
98
F0
80
80
80
ENDCHAR
STARTCHAR Q
ENCODING 81
SWIDTH 777 0
DWIDTH 9 0
BBX 8 10 1 -2
BITMAP
38
44
82
82
82
82
46
3C
06
03
ENDCHAR
STARTCHAR R
ENCODING 82
SWIDTH 633 0
DWIDTH 7 0
BBX 6 8 1 0
BITMAP
F0
88
88
90
E0
90
88
8C
ENDCHAR
STARTCHAR S
ENCODING 83
SWIDTH 539 0
DWIDTH 6 0
BBX 5 8 0 0
BITMAP
70
80
80
60
10
08
88
F0
ENDCHAR
STARTCHAR T
ENCODING 84
SWIDTH 633 0
DWIDTH 7 0
BBX 7 8 0 0
BITMAP
FE
10
10
10
10
10
10
10
ENDCHAR
STARTCHAR U
ENCODING 85
SWIDTH 693 0
DWIDTH 8 0
BBX 6 8 1 0
BITMAP
84
84
84
84
84
84
84
78
ENDCHAR
STARTCHAR V
ENCODING 86
SWIDTH 654 0
DWIDTH 7 0
BBX 7 8 0 0
BITMAP
82
46
44
44
28
28
38
10
ENDCHAR
STARTCHAR W
ENCODING 87
SWIDTH 855 0
DWIDTH 9 0
BBX 9 8 0 0
BITMAP
8880
8880
5500
5500
5500
5500
3600
2200
ENDCHAR
STARTCHAR X
ENCODING 88
SWIDTH 626 0
DWIDTH 7 0
BBX 7 8 0 0
BITMAP
C6
44
28
18
38
28
44
C6
ENDCHAR
STARTCHAR Y
ENCODING 89
SWIDTH 623 0
DWIDTH 7 0
BBX 7 8 0 0
BITMAP
C6
44
28
28
10
10
10
10
ENDCHAR
STARTCHAR Z
ENCODING 90
SWIDTH 605 0
DWIDTH 7 0
BBX 6 8 0 0
BITMAP
FC
08
18
10
20
40
40
FC
ENDCHAR
STARTCHAR bracketleft
ENCODING 91
SWIDTH 325 0
DWIDTH 4 0
BBX 2 10 1 -2
BITMAP
C0
80
80
80
80
80
80
80
80
C0
ENDCHAR
STARTCHAR backslash
ENCODING 92
SWIDTH 494 0
DWIDTH 5 0
BBX 5 10 0 -2
BITMAP
80
40
40
40
20
20
10
10
10
08
ENDCHAR
STARTCHAR bracketright
ENCODING 93
SWIDTH 325 0
DWIDTH 4 0
BBX 2 10 0 -2
BITMAP
C0
40
40
40
40
40
40
40
40
C0
ENDCHAR
STARTCHAR asciicircum
ENCODING 94
SWIDTH 633 0
DWIDTH 7 0
BBX 6 7 0 1
BITMAP
10
30
30
48
48
48
84
ENDCHAR
STARTCHAR underscore
ENCODING 95
SWIDTH 500 0
DWIDTH 6 0
BBX 5 1 0 -1
BITMAP
F8
ENDCHAR
STARTCHAR grave
ENCODING 96
SWIDTH 614 0
DWIDTH 7 0
BBX 2 1 2 7
BITMAP
C0
ENDCHAR
STARTCHAR a
ENCODING 97
SWIDTH 552 0
DWIDTH 6 0
BBX 5 6 1 0
BITMAP
70
90
70
90
90
68
ENDCHAR
STARTCHAR b
ENCODING 98
SWIDTH 630 0
DWIDTH 7 0
BBX 5 8 1 0
BITMAP
80
80
F0
88
88
88
98
F0
ENDCHAR
STARTCHAR c
ENCODING 99
SWIDTH 518 0
DWIDTH 6 0
BBX 4 6 1 0
BITMAP
70
C0
80
80
C0
70
ENDCHAR
STARTCHAR d
ENCODING 100
SWIDTH 630 0
DWIDTH 7 0
BBX 5 8 1 0
BITMAP
08
08
78
C8
88
88
88
78
ENDCHAR
STARTCHAR e
ENCODING 101
SWIDTH 557 0
DWIDTH 6 0
BBX 5 6 0 0
BITMAP
70
88
F8
80
C0
78
ENDCHAR
STARTCHAR f
ENCODING 102
SWIDTH 367 0
DWIDTH 4 0
BBX 4 9 0 0
BITMAP
30
40
40
E0
40
40
40
40
40
ENDCHAR
STARTCHAR g
ENCODING 103
SWIDTH 623 0
DWIDTH 7 0
BBX 5 8 1 -2
BITMAP
78
C8
88
88
88
78
08
F0
ENDCHAR
STARTCHAR h
ENCODING 104
SWIDTH 620 0
DWIDTH 7 0
BBX 5 8 1 0
BITMAP
80
80
B0
C8
88
88
88
88
ENDCHAR
STARTCHAR i
ENCODING 105
SWIDTH 289 0
DWIDTH 3 0
BBX 1 8 1 0
BITMAP
80
00
80
80
80
80
80
80
ENDCHAR
STARTCHAR j
ENCODING 106
SWIDTH 304 0
DWIDTH 3 0
BBX 3 10 0 -2
BITMAP
20
00
20
20
20
20
20
20
20
C0
ENDCHAR
STARTCHAR k
ENCODING 107
SWIDTH 585 0
DWIDTH 6 0
BBX 5 8 1 0
BITMAP
80
80
98
A0
E0
E0
B0
98
ENDCHAR
STARTCHAR l
ENCODING 108
SWIDTH 289 0
DWIDTH 3 0
BBX 1 8 1 0
BITMAP
80
80
80
80
80
80
80
80
ENDCHAR
STARTCHAR m
ENCODING 109
SWIDTH 934 0
DWIDTH 10 0
BBX 9 6 1 0
BITMAP
BB00
CC80
8880
8880
8880
8880
ENDCHAR
STARTCHAR n
ENCODING 110
SWIDTH 620 0
DWIDTH 7 0
BBX 5 6 1 0
BITMAP
B0
C8
88
88
88
88
ENDCHAR
STARTCHAR o
ENCODING 111
SWIDTH 614 0
DWIDTH 7 0
BBX 6 6 0 0
BITMAP
78
CC
84
84
CC
78
ENDCHAR
STARTCHAR p
ENCODING 112
SWIDTH 630 0
DWIDTH 7 0
BBX 5 8 1 -2
BITMAP
F0
88
88
88
98
F0
80
80
ENDCHAR
STARTCHAR q
ENCODING 113
SWIDTH 630 0
DWIDTH 7 0
BBX 5 8 1 -2
BITMAP
78
C8
88
88
88
78
08
08
ENDCHAR
STARTCHAR r
ENCODING 114
SWIDTH 409 0
DWIDTH 5 0
BBX 3 6 1 0
BITMAP
A0
C0
80
80
80
80
ENDCHAR
STARTCHAR s
ENCODING 115
SWIDTH 510 0
DWIDTH 6 0
BBX 4 6 1 0
BITMAP
70
80
C0
30
90
E0
ENDCHAR
STARTCHAR t
ENCODING 116
SWIDTH 374 0
DWIDTH 4 0
BBX 4 7 0 0
BITMAP
40
F0
40
40
40
40
30
ENDCHAR
STARTCHAR u
ENCODING 117
SWIDTH 620 0
DWIDTH 7 0
BBX 5 6 1 0
BITMAP
88
88
88
88
98
68
ENDCHAR
STARTCHAR v
ENCODING 118
SWIDTH 572 0
DWIDTH 6 0
BBX 6 6 0 0
BITMAP
84
48
48
78
30
30
ENDCHAR
STARTCHAR w
ENCODING 119
SWIDTH 840 0
DWIDTH 8 0
BBX 8 6 0 0
BITMAP
99
99
5A
6A
66
64
ENDCHAR
STARTCHAR x
ENCODING 120
SWIDTH 613 0
DWIDTH 7 0
BBX 6 6 0 0
BITMAP
CC
68
30
30
48
CC
ENDCHAR
STARTCHAR y
ENCODING 121
SWIDTH 568 0
DWIDTH 6 0
BBX 6 8 0 -2
BITMAP
84
48
48
38
30
30
20
60
ENDCHAR
STARTCHAR z
ENCODING 122
SWIDTH 573 0
DWIDTH 6 0
BBX 5 6 1 0
BITMAP
F8
10
30
60
40
F8
ENDCHAR
STARTCHAR braceleft
ENCODING 123
SWIDTH 325 0
DWIDTH 4 0
BBX 3 10 0 -2
BITMAP
20
40
40
40
40
C0
40
40
40
20
ENDCHAR
STARTCHAR bar
ENCODING 124
SWIDTH 265 0
DWIDTH 3 0
BBX 1 10 1 -2
BITMAP
80
80
80
80
80
80
80
80
80
80
ENDCHAR
STARTCHAR braceright
ENCODING 125
SWIDTH 325 0
DWIDTH 4 0
BBX 3 10 1 -2
BITMAP
80
40
40
40
60
40
40
40
40
80
ENDCHAR
STARTCHAR asciitilde
ENCODING 126
SWIDTH 633 0
DWIDTH 7 0
BBX 6 3 0 2
BITMAP
64
B4
98
ENDCHAR
STARTCHAR space
ENCODING 160
SWIDTH 316 0
DWIDTH 3 0
BBX 1 1 0 0
BITMAP
00
ENDCHAR
STARTCHAR exclamdown
ENCODING 161
SWIDTH 205 0
DWIDTH 3 0
BBX 1 8 1 -2
BITMAP
80
00
80
80
80
80
80
80
ENDCHAR
STARTCHAR cent
ENCODING 162
SWIDTH 633 0
DWIDTH 7 0
BBX 5 8 1 0
BITMAP
20
78
A0
A0
A0
A0
78
20
ENDCHAR
STARTCHAR sterling
ENCODING 163
SWIDTH 633 0
DWIDTH 7 0
BBX 4 8 2 0
BITMAP
30
40
40
E0
40
40
40
F0
ENDCHAR
STARTCHAR currency
ENCODING 164
SWIDTH 633 0
DWIDTH 7 0
BBX 7 8 0 0
BITMAP
82
7C
6C
44
44
6C
7C
82
ENDCHAR
STARTCHAR yen
ENCODING 165
SWIDTH 633 0
DWIDTH 7 0
BBX 6 8 1 0
BITMAP
8C
48
70
30
78
78
20
20
ENDCHAR
STARTCHAR brokenbar
ENCODING 166
SWIDTH 265 0
DWIDTH 3 0
BBX 1 10 1 -2
BITMAP
80
80
80
80
00
00
80
80
80
80
ENDCHAR
STARTCHAR section
ENCODING 167
SWIDTH 633 0
DWIDTH 7 0
BBX 5 10 1 -2
BITMAP
78
80
80
70
98
C8
70
08
88
F0
ENDCHAR
STARTCHAR dieresis
ENCODING 168
SWIDTH 614 0
DWIDTH 7 0
BBX 3 1 2 7
BITMAP
A0
ENDCHAR
STARTCHAR copyright
ENCODING 169
SWIDTH 855 0
DWIDTH 9 0
BBX 8 8 1 0
BITMAP
3C
46
9B
A1
A1
9B
46
3C
ENDCHAR
STARTCHAR ordfeminine
ENCODING 170
SWIDTH 422 0
DWIDTH 5 0
BBX 4 4 0 4
BITMAP
F0
70
90
F0
ENDCHAR
STARTCHAR guillemotleft
ENCODING 171
SWIDTH 524 0
DWIDTH 6 0
BBX 5 6 0 0
BITMAP
28
50
F0
D0
50
28
ENDCHAR
STARTCHAR logicalnot
ENCODING 172
SWIDTH 633 0
DWIDTH 7 0
BBX 6 3 0 2
BITMAP
FC
04
04
ENDCHAR
STARTCHAR hyphen
ENCODING 173
SWIDTH 325 0
DWIDTH 4 0
BBX 2 1 1 3
BITMAP
C0
ENDCHAR
STARTCHAR registered
ENCODING 174
SWIDTH 633 0
DWIDTH 7 0
BBX 4 5 1 3
BITMAP
60
F0
D0
F0
60
ENDCHAR
STARTCHAR macron
ENCODING 175
SWIDTH 614 0
DWIDTH 7 0
BBX 3 1 2 7
BITMAP
E0
ENDCHAR
STARTCHAR degree
ENCODING 176
SWIDTH 277 0
DWIDTH 3 0
BBX 3 2 2 6
BITMAP
E0
60
ENDCHAR
STARTCHAR plusminus
ENCODING 177
SWIDTH 633 0
DWIDTH 7 0
BBX 7 7 0 0
BITMAP
10
10
FE
10
10
00
FE
ENDCHAR
STARTCHAR twosuperior
ENCODING 178
SWIDTH 422 0
DWIDTH 4 0
BBX 3 5 -6 3
BITMAP
E0
20
60
C0
E0
ENDCHAR
STARTCHAR threesuperior
ENCODING 179
SWIDTH 422 0
DWIDTH 4 0
BBX 3 5 -6 3
BITMAP
E0
60
C0
20
E0
ENDCHAR
STARTCHAR acute
ENCODING 180
SWIDTH 614 0
DWIDTH 7 0
BBX 2 1 3 7
BITMAP
C0
ENDCHAR
STARTCHAR mu
ENCODING 181
SWIDTH 627 0
DWIDTH 7 0
BBX 5 8 1 -2
BITMAP
88
88
88
88
98
E8
80
80
ENDCHAR
STARTCHAR paragraph
ENCODING 182
SWIDTH 633 0
DWIDTH 7 0
BBX 4 10 1 -2
BITMAP
F0
F0
F0
70
30
30
30
30
30
30
ENDCHAR
STARTCHAR periodcentered
ENCODING 183
SWIDTH 316 0
DWIDTH 7 0
BBX 1 1 3 3
BITMAP
80
ENDCHAR
STARTCHAR cedilla
ENCODING 184
SWIDTH 614 0
DWIDTH 7 0
BBX 2 3 3 -2
BITMAP
80
40
C0
ENDCHAR
STARTCHAR onesuperior
ENCODING 185
SWIDTH 422 0
DWIDTH 4 0
BBX 2 5 -6 3
BITMAP
C0
40
40
40
40
ENDCHAR
STARTCHAR ordmasculine
ENCODING 186
SWIDTH 422 0
DWIDTH 5 0
BBX 4 4 0 4
BITMAP
60
90
90
60
ENDCHAR
STARTCHAR guillemotright
ENCODING 187
SWIDTH 524 0
DWIDTH 6 0
BBX 5 6 0 0
BITMAP
A0
50
58
78
50
A0
ENDCHAR
STARTCHAR onequarter
ENCODING 188
SWIDTH 801 0
DWIDTH 9 0
BBX 8 8 3 0
BITMAP
C6
44
48
5A
76
2A
4F
C2
ENDCHAR
STARTCHAR onehalf
ENCODING 189
SWIDTH 801 0
DWIDTH 9 0
BBX 7 8 3 0
BITMAP
C6
44
48
5E
72
26
4C
CE
ENDCHAR
STARTCHAR threequarters
ENCODING 190
SWIDTH 873 0
DWIDTH 9 0
BBX 8 8 3 0
BITMAP
E6
64
C8
3A
F6
2A
4F
C2
ENDCHAR
STARTCHAR questiondown
ENCODING 191
SWIDTH 422 0
DWIDTH 5 0
BBX 4 8 0 -2
BITMAP
20
00
20
20
40
80
80
70
ENDCHAR
STARTCHAR Agrave
ENCODING 192
SWIDTH 690 0
DWIDTH 8 0
BBX 7 9 0 0
BITMAP
30
10
38
28
28
44
7C
44
82
ENDCHAR
STARTCHAR Aacute
ENCODING 193
SWIDTH 690 0
DWIDTH 8 0
BBX 7 9 0 0
BITMAP
18
10
38
28
28
44
7C
44
82
ENDCHAR
STARTCHAR Acircumflex
ENCODING 194
SWIDTH 690 0
DWIDTH 8 0
BBX 7 9 0 0
BITMAP
3C
10
38
28
28
44
7C
44
82
ENDCHAR
STARTCHAR Atilde
ENCODING 195
SWIDTH 690 0
DWIDTH 8 0
BBX 7 9 0 0
BITMAP
3C
10
38
28
28
44
7C
44
82
ENDCHAR
STARTCHAR Adieresis
ENCODING 196
SWIDTH 690 0
DWIDTH 8 0
BBX 7 9 0 0
BITMAP
28
10
38
28
28
44
7C
44
82
ENDCHAR
STARTCHAR Aring
ENCODING 197
SWIDTH 690 0
DWIDTH 8 0
BBX 7 10 0 0
BITMAP
18
24
18
38
28
28
44
7C
44
82
ENDCHAR
STARTCHAR AE
ENCODING 198
SWIDTH 907 0
DWIDTH 10 0
BBX 10 8 0 0
BITMAP
0FC0
0C00
1400
1780
2400
7C00
4400
87C0
ENDCHAR
STARTCHAR Ccedilla
ENCODING 199
SWIDTH 692 0
DWIDTH 8 0
BBX 6 10 1 -2
BITMAP
3C
44
80
80
80
80
44
3C
10
30
ENDCHAR
STARTCHAR Egrave
ENCODING 200
SWIDTH 542 0
DWIDTH 6 0
BBX 5 9 1 0
BITMAP
20
F8
80
80
F0
80
80
80
F8
ENDCHAR
STARTCHAR Eacute
ENCODING 201
SWIDTH 542 0
DWIDTH 6 0
BBX 5 9 1 0
BITMAP
40
F8
80
80
F0
80
80
80
F8
ENDCHAR
STARTCHAR Ecircumflex
ENCODING 202
SWIDTH 542 0
DWIDTH 6 0
BBX 5 9 1 0
BITMAP
60
F8
80
80
F0
80
80
80
F8
ENDCHAR
STARTCHAR Edieresis
ENCODING 203
SWIDTH 542 0
DWIDTH 6 0
BBX 5 9 1 0
BITMAP
50
F8
80
80
F0
80
80
80
F8
ENDCHAR
STARTCHAR Igrave
ENCODING 204
SWIDTH 288 0
DWIDTH 3 0
BBX 2 9 2 0
BITMAP
C0
40
40
40
40
40
40
40
40
ENDCHAR
STARTCHAR Iacute
ENCODING 205
SWIDTH 288 0
DWIDTH 3 0
BBX 2 9 1 0
BITMAP
C0
80
80
80
80
80
80
80
80
ENDCHAR
STARTCHAR Icircumflex
ENCODING 206
SWIDTH 288 0
DWIDTH 3 0
BBX 4 9 2 0
BITMAP
F0
40
40
40
40
40
40
40
40
ENDCHAR
STARTCHAR Idieresis
ENCODING 207
SWIDTH 288 0
DWIDTH 3 0
BBX 3 9 2 0
BITMAP
A0
40
40
40
40
40
40
40
40
ENDCHAR
STARTCHAR Eth
ENCODING 208
SWIDTH 749 0
DWIDTH 8 0
BBX 8 8 0 0
BITMAP
7C
42
41
F1
41
41
42
7C
ENDCHAR
STARTCHAR Ntilde
ENCODING 209
SWIDTH 741 0
DWIDTH 8 0
BBX 6 9 1 0
BITMAP
78
84
C4
E4
A4
94
9C
8C
84
ENDCHAR
STARTCHAR Ograve
ENCODING 210
SWIDTH 777 0
DWIDTH 9 0
BBX 7 9 1 0
BITMAP
10
38
44
82
82
82
82
44
38
ENDCHAR
STARTCHAR Oacute
ENCODING 211
SWIDTH 777 0
DWIDTH 9 0
BBX 7 9 1 0
BITMAP
10
38
44
82
82
82
82
44
38
ENDCHAR
STARTCHAR Ocircumflex
ENCODING 212
SWIDTH 777 0
DWIDTH 9 0
BBX 7 9 1 0
BITMAP
1C
38
44
82
82
82
82
44
38
ENDCHAR
STARTCHAR Otilde
ENCODING 213
SWIDTH 777 0
DWIDTH 9 0
BBX 7 9 1 0
BITMAP
3C
38
44
82
82
82
82
44
38
ENDCHAR
STARTCHAR Odieresis
ENCODING 214
SWIDTH 777 0
DWIDTH 9 0
BBX 7 9 1 0
BITMAP
28
38
44
82
82
82
82
44
38
ENDCHAR
STARTCHAR multiply
ENCODING 215
SWIDTH 633 0
DWIDTH 7 0
BBX 6 7 0 0
BITMAP
84
48
78
30
78
48
84
ENDCHAR
STARTCHAR Oslash
ENCODING 216
SWIDTH 777 0
DWIDTH 9 0
BBX 7 8 1 0
BITMAP
3E
44
8A
9A
B2
A2
44
F8
ENDCHAR
STARTCHAR Ugrave
ENCODING 217
SWIDTH 693 0
DWIDTH 8 0
BBX 6 9 1 0
BITMAP
30
84
84
84
84
84
84
84
78
ENDCHAR
STARTCHAR Uacute
ENCODING 218
SWIDTH 693 0
DWIDTH 8 0
BBX 6 9 1 0
BITMAP
30
84
84
84
84
84
84
84
78
ENDCHAR
STARTCHAR Ucircumflex
ENCODING 219
SWIDTH 693 0
DWIDTH 8 0
BBX 6 9 1 0
BITMAP
78
84
84
84
84
84
84
84
78
ENDCHAR
STARTCHAR Udieresis
ENCODING 220
SWIDTH 693 0
DWIDTH 8 0
BBX 6 9 1 0
BITMAP
50
84
84
84
84
84
84
84
78
ENDCHAR
STARTCHAR Yacute
ENCODING 221
SWIDTH 623 0
DWIDTH 7 0
BBX 7 9 0 0
BITMAP
18
C6
44
28
28
10
10
10
10
ENDCHAR
STARTCHAR Thorn
ENCODING 222
SWIDTH 553 0
DWIDTH 6 0
BBX 5 8 1 0
BITMAP
80
F0
88
88
88
98
F0
80
ENDCHAR
STARTCHAR germandbls
ENCODING 223
SWIDTH 598 0
DWIDTH 7 0
BBX 5 9 1 0
BITMAP
E0
90
90
A0
A0
90
88
88
B0
ENDCHAR
STARTCHAR agrave
ENCODING 224
SWIDTH 552 0
DWIDTH 6 0
BBX 5 7 1 0
BITMAP
20
70
90
70
90
90
68
ENDCHAR
STARTCHAR aacute
ENCODING 225
SWIDTH 552 0
DWIDTH 6 0
BBX 5 7 1 0
BITMAP
20
70
90
70
90
90
68
ENDCHAR
STARTCHAR acircumflex
ENCODING 226
SWIDTH 552 0
DWIDTH 6 0
BBX 5 7 1 0
BITMAP
E0
70
90
70
90
90
68
ENDCHAR
STARTCHAR atilde
ENCODING 227
SWIDTH 552 0
DWIDTH 6 0
BBX 5 7 1 0
BITMAP
F0
70
90
70
90
90
68
ENDCHAR
STARTCHAR adieresis
ENCODING 228
SWIDTH 552 0
DWIDTH 6 0
BBX 5 7 1 0
BITMAP
50
70
90
70
90
90
68
ENDCHAR
STARTCHAR aring
ENCODING 229
SWIDTH 552 0
DWIDTH 6 0
BBX 5 8 1 0
BITMAP
60
90
70
90
70
90
90
68
ENDCHAR
STARTCHAR ae
ENCODING 230
SWIDTH 853 0
DWIDTH 9 0
BBX 7 6 1 0
BITMAP
6C
92
7E
90
98
EE
ENDCHAR
STARTCHAR ccedilla
ENCODING 231
SWIDTH 518 0
DWIDTH 6 0
BBX 4 8 1 -2
BITMAP
70
C0
80
80
C0
70
20
60
ENDCHAR
STARTCHAR egrave
ENCODING 232
SWIDTH 557 0
DWIDTH 6 0
BBX 5 7 0 0
BITMAP
20
70
88
F8
80
C0
78
ENDCHAR
STARTCHAR eacute
ENCODING 233
SWIDTH 557 0
DWIDTH 6 0
BBX 5 7 0 0
BITMAP
20
70
88
F8
80
C0
78
ENDCHAR
STARTCHAR ecircumflex
ENCODING 234
SWIDTH 557 0
DWIDTH 6 0
BBX 5 7 0 0
BITMAP
38
70
88
F8
80
C0
78
ENDCHAR
STARTCHAR edieresis
ENCODING 235
SWIDTH 557 0
DWIDTH 6 0
BBX 5 7 0 0
BITMAP
50
70
88
F8
80
C0
78
ENDCHAR
STARTCHAR igrave
ENCODING 236
SWIDTH 289 0
DWIDTH 3 0
BBX 2 7 2 0
BITMAP
C0
40
40
40
40
40
40
ENDCHAR
STARTCHAR iacute
ENCODING 237
SWIDTH 289 0
DWIDTH 3 0
BBX 2 7 1 0
BITMAP
C0
80
80
80
80
80
80
ENDCHAR
STARTCHAR icircumflex
ENCODING 238
SWIDTH 289 0
DWIDTH 3 0
BBX 4 7 2 0
BITMAP
F0
40
40
40
40
40
40
ENDCHAR
STARTCHAR idieresis
ENCODING 239
SWIDTH 289 0
DWIDTH 3 0
BBX 3 7 2 0
BITMAP
A0
40
40
40
40
40
40
ENDCHAR
STARTCHAR eth
ENCODING 240
SWIDTH 602 0
DWIDTH 7 0
BBX 5 8 1 0
BITMAP
E0
50
70
88
88
88
D8
70
ENDCHAR
STARTCHAR ntilde
ENCODING 241
SWIDTH 620 0
DWIDTH 7 0
BBX 5 7 1 0
BITMAP
F0
B0
C8
88
88
88
88
ENDCHAR
STARTCHAR ograve
ENCODING 242
SWIDTH 614 0
DWIDTH 7 0
BBX 6 7 0 0
BITMAP
10
78
CC
84
84
CC
78
ENDCHAR
STARTCHAR oacute
ENCODING 243
SWIDTH 614 0
DWIDTH 7 0
BBX 6 7 0 0
BITMAP
20
78
CC
84
84
CC
78
ENDCHAR
STARTCHAR ocircumflex
ENCODING 244
SWIDTH 614 0
DWIDTH 7 0
BBX 6 7 0 0
BITMAP
30
78
CC
84
84
CC
78
ENDCHAR
STARTCHAR otilde
ENCODING 245
SWIDTH 614 0
DWIDTH 7 0
BBX 6 7 0 0
BITMAP
78
78
CC
84
84
CC
78
ENDCHAR
STARTCHAR odieresis
ENCODING 246
SWIDTH 614 0
DWIDTH 7 0
BBX 6 7 0 0
BITMAP
50
78
CC
84
84
CC
78
ENDCHAR
STARTCHAR divide
ENCODING 247
SWIDTH 633 0
DWIDTH 7 0
BBX 7 6 0 0
BITMAP
10
00
00
FE
00
10
ENDCHAR
STARTCHAR oslash
ENCODING 248
SWIDTH 614 0
DWIDTH 7 0
BBX 6 6 0 0
BITMAP
7C
CC
94
A4
CC
F8
ENDCHAR
STARTCHAR ugrave
ENCODING 249
SWIDTH 620 0
DWIDTH 7 0
BBX 5 7 1 0
BITMAP
60
88
88
88
88
98
68
ENDCHAR
STARTCHAR uacute
ENCODING 250
SWIDTH 620 0
DWIDTH 7 0
BBX 5 7 1 0
BITMAP
30
88
88
88
88
98
68
ENDCHAR
STARTCHAR ucircumflex
ENCODING 251
SWIDTH 620 0
DWIDTH 7 0
BBX 5 7 1 0
BITMAP
78
88
88
88
88
98
68
ENDCHAR
STARTCHAR udieresis
ENCODING 252
SWIDTH 620 0
DWIDTH 7 0
BBX 5 7 1 0
BITMAP
50
88
88
88
88
98
68
ENDCHAR
STARTCHAR yacute
ENCODING 253
SWIDTH 568 0
DWIDTH 6 0
BBX 6 9 0 -2
BITMAP
30
84
48
48
38
30
30
20
60
ENDCHAR
STARTCHAR thorn
ENCODING 254
SWIDTH 630 0
DWIDTH 7 0
BBX 5 10 1 -2
BITMAP
80
80
F0
88
88
88
98
F0
80
80
ENDCHAR
STARTCHAR ydieresis
ENCODING 255
SWIDTH 568 0
DWIDTH 6 0
BBX 6 9 0 -2
BITMAP
50
84
48
48
38
30
30
20
60
ENDCHAR
ENDFONT
